<?xml version="1.0" encoding="utf-8"?>
<!-- Generator: Adobe Illustrator 25.2.3, SVG Export Plug-In . SVG Version: 6.00 Build 0)  -->
<svg version="1.1" id="Layer_9" xmlns="http://www.w3.org/2000/svg" xmlns:xlink="http://www.w3.org/1999/xlink" x="0px" y="0px"
	 viewBox="0 0 1000 1000" style="enable-background:new 0 0 1000 1000;" xml:space="preserve">
<style type="text/css">
	.st0{fill:#003069;}
</style>
<g>
	<path class="st0" d="M499.99,13c65.75,0,129.53,12.88,189.56,38.27c57.99,24.53,110.08,59.65,154.81,104.38
		c44.73,44.73,79.85,96.81,104.37,154.8C974.12,370.48,987,434.25,987,500c0,65.75-12.88,129.53-38.27,189.56
		c-24.53,57.99-59.64,110.07-104.37,154.8c-44.73,44.73-96.81,79.84-154.81,104.37C629.52,974.13,565.74,987,499.99,987
		c-65.75,0-129.52-12.87-189.55-38.27c-57.99-24.53-110.07-59.64-154.8-104.37c-44.73-44.73-79.85-96.81-104.37-154.8
		C25.88,629.53,13,565.75,13,500c0-65.75,12.88-129.52,38.27-189.55c24.53-57.99,59.64-110.07,104.37-154.8
		c44.73-44.73,96.81-79.85,154.8-104.38C370.47,25.88,434.25,13,499.99,13 M499.99,0.5C224.14,0.5,0.5,224.15,0.5,500
		c0,275.87,223.64,499.5,499.49,499.5c275.87,0,499.51-223.63,499.51-499.5C999.5,224.15,775.86,0.5,499.99,0.5L499.99,0.5z"/>
	<g>
		<path class="st0" d="M499.99,192.04c-170.08,0-307.96,137.89-307.96,307.96c0,170.09,137.88,307.96,307.96,307.96
			c170.08,0,307.96-137.87,307.96-307.96C807.96,329.93,670.08,192.04,499.99,192.04z M693.82,693.83
			c-51.77,51.77-120.6,80.29-193.82,80.29c-73.22,0-142.06-28.51-193.83-80.29c-51.77-51.77-80.29-120.61-80.29-193.83
			c0-73.21,28.51-142.05,80.29-193.83c51.78-51.78,120.62-80.3,193.83-80.3c73.21,0,142.05,28.52,193.82,80.3
			C745.59,357.95,774.1,426.79,774.1,500C774.1,573.22,745.59,642.06,693.82,693.83z"/>
		<path class="st0" d="M685.34,314.66c-49.51-49.51-115.33-76.78-185.34-76.78c-70.01,0-135.84,27.27-185.35,76.78
			c-49.51,49.51-76.77,115.33-76.77,185.34c0,70.01,27.27,135.84,76.77,185.34c49.51,49.51,115.33,76.77,185.35,76.77
			c70.01,0,135.83-27.26,185.34-76.77c49.5-49.51,76.77-115.33,76.77-185.34C762.1,429.99,734.84,364.17,685.34,314.66z
			 M602.92,654.14c-9.11-16.15-10.89-18.97-18.2-20.68c-10.76-2.57-17.99,3.19-17.99,3.19l0.1-0.13
			c-17.78,13.48-38.32,21.14-70.67,21.14c-46.42,0-80.26-18.17-106-43.91c-22.71-22.71-43.41-59.07-43.41-103.48
			c0-41.92,15.64-83.79,46.43-115.11c28.31-27.77,64.14-51.5,112.08-51.5c50,0,72.71,19.68,79.27,19.68
			c4.04,0,9.06-4.54,18.17-20.67c1.03-2.55,13.62-1.54,13.62,1.51c-2.5,34.3-2.5,87.81-1.99,114.07c0,2.02-12.64,2.02-13.16,0
			c-10.06-34.32-22.21-62.07-36.83-76.72c-12.62-12.63-29.3-19.7-59.58-19.7c-41.4,0-65.64,21.71-76.73,44.41
			c-15.14,30.29-20.72,58.56-20.72,102.49c0,38.38,5.08,65.15,16.16,86.85c12.14,25.26,39.39,41.89,79.8,41.89
			c31.77,0,49.83-10.13,68.03-28.25c14.12-14.09,22.63-28.72,28.76-48.1c0.75-2.4,15.33,2.6,14.81,4.59
			c-0.51,26.28-0.85,52.61,1.67,86.89C616.53,655.67,603.9,656.68,602.92,654.14z"/>
	</g>
	<g>
		<g>
			<path class="st0" d="M260.92,226.78c-0.28-0.62-2.45-2.75-3.36-2.75l-0.42,0.02l-0.25,0.26c-5,5.26-5.92,5.76-7.26,5.83
				c-1.77,0.1-3.8-0.45-8.72-2.45C207,214.21,192,208.12,181.53,203.57c-0.24-0.13-0.47-0.19-0.71-0.19c-0.72,0-1.38,0.49-2.83,2.11
				c-0.98,1.11-2.18,2.62-2.3,3.52l-0.04,0.26l0.12,0.24c9.54,18.45,17.22,35.32,27.25,58.22c2.21,5.27,3.01,7.83,3.05,9.85
				c0.19,2.14-0.62,3.72-4.34,8.4l-0.35,0.48l0.22,0.49c0.19,0.41,2.44,2.73,3.31,2.73l0.42-0.01l0.25-0.3
				c4.46-5.32,12.82-14.92,17.48-19.6c0.1-0.1,0.39-0.49,0.14-1.05c-0.25-0.57-2.33-2.83-3.29-2.83l-0.4,0.02l-0.25,0.24
				c-2.91,2.88-5.06,4.92-6.1,4.92c-0.3,0-0.62-0.17-1.1-0.59c-0.9-0.8-1.95-2.56-3.03-4.38c-1.64-3.08-2.58-5.04-3.91-8.11
				c-0.15-0.29-0.1-0.34-0.01-0.44c1.98-2.4,4.1-4.78,7.1-8.14c5.97-6.69,10.84-11.83,12.69-13.73c4.99,1.94,8.3,3.42,10.74,4.51
				l0.56,0.25c2.8,1.16,2.83,1.71,2.84,1.95c0.03,0.54-0.27,1.39-4.2,6.31c-0.25,0.28-0.29,0.67-0.13,1.04
				c0.29,0.64,2.4,2.68,3.4,2.68c0.29,0,0.54-0.11,0.74-0.34c3.24-3.9,5.26-6.14,8.05-9.24c1.06-1.18,2.24-2.49,3.64-4.06
				c2.17-2.44,3.72-4.06,5.52-5.94c1.33-1.39,2.79-2.92,4.73-5.02C261.04,227.54,261.09,227.15,260.92,226.78z M219.39,233.29
				c-4.69,5.23-12.31,13.45-17.16,18.45c-1.36-2.93-2.68-5.78-4.01-8.68c-3.16-6.87-6.42-13.96-10.79-22.96
				C197.88,224.35,211.65,230.06,219.39,233.29z"/>
		</g>
		<g>
			<path class="st0" d="M360.3,151.83l-0.03-0.19c-0.08-0.31-0.26-1.03-2.84-1.03c-0.65,0-2.64,0-2.69,1.32
				c-0.04,5.91-0.42,9.1-2.41,10.18c-0.62,0.34-1.11,0.49-1.6,0.49c-1.87,0-4.54-2.29-10.58-9.08c-4.64-5.17-9.34-7.38-15.73-7.38
				c-1.92,0-4.04,0.19-6.54,0.6c8.54-7.2,14.14-18.55,9.06-27.83c-1.81-3.3-4.64-5.65-7.97-6.62c-7.22-2.11-16.46-0.23-26.96,5.51
				c-2.96,1.62-6.56,3.63-9.83,5.46c-2.51,1.4-4.82,2.69-6.49,3.61l-0.32,0.17c-3.97,2.17-7.72,4.22-15.71,8.46
				c-0.33,0.18-0.85,0.66-0.55,1.86c0.17,0.67,1.28,3.29,2.55,3.29l0.28-0.02l1.01-0.54c5.87-3.11,8.07-4.28,8.54-4.28c0,0,0,0,0,0
				c0.29,0.09,0.98,0.81,2.59,3.75c0.27,0.49,0.97,1.76,1.98,3.56c2.22,3.98,5.93,10.64,9.55,17.26c0.92,1.68,2.16,4,4.06,7.55
				c2.22,4.16,5.36,10.02,9.95,18.56c1.42,2.59,1.62,3.41,1.64,3.65c-0.82,0.86-6.61,4.26-8.8,5.55c-0.27,0.15-0.69,0.52-0.46,1.43
				c0.13,0.51,1.48,3.7,2.75,3.7h0l0.27-0.01l0.19-0.11c12.42-7.2,29.54-16.16,31.26-16.96c0.31-0.18,0.64-0.56,0.41-1.42
				c-0.01-0.04-1.27-3.72-2.7-3.72l-0.26,0.02l-0.17,0.08c-6.52,3.18-9.47,4.58-10.14,4.68c-0.19-0.17-0.63-0.97-1.19-2
				c-0.49-0.89-1.57-2.94-2.97-5.57c-2.53-4.77-5.97-11.26-8.87-16.57l8.87-4.85c2.34-1.28,4.15-1.85,5.88-1.85
				c3.25,0,6.55,2.15,11.03,7.18c6.43,7.35,10.38,10.53,14.56,11.76c3.97,1.16,8.09,0.59,12.24-1.67
				C358.21,167.05,360.48,161.34,360.3,151.83z M317.23,136.95c0.21,5.97-5.98,10.2-12.71,13.89c-2.72,1.49-5.39,2.86-6.65,3.45
				l-12.37-22.61c-0.74-1.34-1.38-2.51-1.44-2.83c0.46-0.43,3.01-1.82,8.82-4.99c5.23-2.86,8.94-4.2,11.69-4.2
				c1.56,0,2.86,0.42,4.2,1.35c2.08,1.44,3.56,3.22,5.26,6.32C316.16,131.22,317.12,134.1,317.23,136.95z"/>
		</g>
		<path class="st0" d="M468.54,137.29c-0.64-6.58-2.31-18.72-3.62-27.31c-0.08-0.45-0.44-0.99-1.75-0.99c-0.12,0-2.9,0.02-3.2,1.38
			l-0.02,0.12c-1.28,16.68-2.72,20.72-3.96,22.47c-1.4,1.96-4.85,2.85-13.86,4.37c-4.72,0.79-7.61,1.16-9.09,1.16
			c-0.5,0-0.73-0.04-0.82-0.07c-0.41-0.79-1.07-4.73-1.99-10.19l-0.16-0.98c-4-23.8-4.72-28.09-5.83-35.41
			c-1.16-7.42-2.04-13.2-1.88-14.3c0.72-0.44,5.06-1.19,10.23-2.06c0.95-0.16,0.85-1.36,0.78-2.15c-0.28-3.29-0.99-3.29-1.42-3.29
			l-17.28,2.88c-2.81,0.47-5.84,0.92-8.76,1.35c-2.9,0.43-5.64,0.83-8.18,1.26c-0.94,0.17-0.84,1.32-0.77,2.16
			c0.29,3.28,0.97,3.28,1.42,3.28l0.15-0.01c5.03-0.84,7.7-1.2,8.93-1.2c0.48,0,0.62,0.05,0.62,0.04c0.63,0.75,1.82,7.84,2.27,10.51
			c1.46,8.66,2.77,17.25,4.03,25.55c0.86,5.63,1.72,11.26,2.63,16.98l0.16,1.09c0.68,4.52,1.06,7.01,0.94,7.4
			c-0.27,0.2-1.89,0.51-4.82,1.07c-1.32,0.25-2.97,0.57-4.99,0.96c-0.94,0.14-0.86,1.27-0.8,2.01c0.26,3.52,1.03,3.55,1.44,3.55
			c0,0,0.01,0,0.01,0l0.16-0.01c7.41-1.37,14.38-2.54,27.07-4.66c12.64-2.13,21.58-3.62,30.43-4.87c0.81-0.13,1.36-0.42,1.68-0.86
			C468.45,138.26,468.63,137.84,468.54,137.29z"/>
		<path class="st0" d="M595.53,74.51c-0.25-0.39-0.66-0.63-1.26-0.72c-10.44-1.18-19.73-2.64-28.72-4.05l-0.48-0.08
			c-4.82-0.76-25.92-4.21-31.33-5.31l-0.14-0.01c-0.69,0-0.96,0.68-1.07,0.97c-0.01,0.03-1.17,3.15-0.29,3.97l0.17,0.16l0.23,0.05
			c4.71,0.94,9.11,1.88,9.4,2.26c0.17,0.5-0.23,3.32-1.04,8.95l-0.23,1.63c-0.98,6.25-1.85,11.93-2.66,17.3
			c-0.72,4.74-1.4,9.23-2.1,13.65c-2.44,15.43-3.45,18.98-3.85,19.66c-0.07,0.02-0.22,0.04-0.54,0.04c-1.25,0-4.19-0.36-9.87-1.1
			l-0.14-0.01c-0.32,0-1.28,0-1.6,4.12c-0.04,0.45-0.11,1.39,0.76,1.53c10.68,1.45,16.29,2.33,30.94,4.64l0.85,0.13
			c11.95,1.88,20.58,3.25,31.94,5.16c0.22,0.04,0.41,0.05,0.57,0.05c0.46,0,1.26-0.17,1.44-1.29c1.47-7.89,3.17-17.07,4.6-25.34
			c0.04-0.29-0.05-0.59-0.25-0.82c-0.74-0.86-3.33-0.91-3.36-0.91c-0.35,0-1.06,0-1.4,0.66c-4.94,13.09-8.29,17.52-10.2,18.91
			c-1.33,0.88-2.9,1.24-8.28,0.4l-12.11-1.92c-7.3-1.15-8.61-1.86-8.78-2.03c-0.23-0.72,0.57-6.21,2.47-18.24l0.04-0.23
			c0.52-3.25,1.21-7.62,1.81-10.88c2.43,0.21,5,0.61,7.1,0.94c6.11,0.97,8,1.45,8.46,2.17c0.65,0.89,1,3.17,0.85,12.19l-0.03,0.33
			l0.25,0.29c0.62,0.73,3.16,0.75,3.19,0.75c0.43,0,1.56,0,1.72-0.97c0.6-6.5,2.11-16.66,4.39-29.37c0.05-0.3-0.04-0.6-0.25-0.84
			c-0.63-0.75-2.53-0.91-3.14-0.91c-0.79,0-1.3,0.17-1.6,0.52l-0.13,0.15l-0.05,0.19c-1.68,7.05-2.49,8.75-3.36,9.39
			c-1.45,0.92-4.5,1-9.24,0.25c-4.02-0.63-5.1-0.81-7.27-1.23l1.95-12.38c0.61-3.86,1.84-11.65,2.4-13.29
			c0.9-0.04,3.54,0.37,10.97,1.55l0.41,0.06c11.65,1.84,12.72,2.17,14.36,4.43c1.35,1.85,3.12,6.39,3.87,17.53
			c0.07,1.59,3.49,1.75,3.53,1.75c0.31,0,0.76-0.04,1.06-0.37l0.14-0.16l0.05-0.21c0.94-4.06,2.04-9.04,3.1-13.87
			c0.65-2.95,1.29-5.89,1.88-8.55C595.69,75.92,595.93,75.15,595.53,74.51z"/>
		<path class="st0" d="M728.19,128.51c-0.26-0.71-1.04-1.09-1.64-1.34c-9.84-4.57-19.3-9.26-28.1-13.94
			c-9.39-5.02-24.44-13.12-27.12-14.65c-0.27-0.14-0.57-0.21-0.88-0.21c-0.89,0-1.75,0.63-2.06,1.21c-0.83,1.48-1.66,2.98-2.52,4.51
			c-2.75,4.93-5.86,10.53-10.19,17.86c-0.17,0.31-0.15,0.68,0.05,1.01c0.45,0.75,2.37,1.74,3.15,1.74c0.35,0,0.57-0.14,0.72-0.29
			c5.74-5.92,13.58-12.83,17.22-13.98c0.79-0.25,1.44-0.36,2.12-0.36c1.63,0,3.66,0.69,6.79,2.32c1.18,0.62,4.19,2.18,4.86,2.72
			c-0.21,0.69-1.41,3.01-4.03,8.03c-1.94,3.72-3.67,7.08-5.3,10.24c-5.17,10.02-9.24,17.93-15.47,28.93
			c-3.51,6.21-4.99,7.41-5.25,7.58c-0.78-0.14-4.65-1.93-11.25-5.01l-0.22-0.1h-0.2c-1.34,0-2.38,3.41-2.39,3.45
			c-0.23,0.91,0.11,1.3,0.47,1.49c12,5.73,22.05,10.77,35.12,18.27l0.23,0.1h0.2c1.36,0,2.53-3.44,2.54-3.47
			c0.19-0.8-0.25-1.13-0.39-1.2c-8-4.87-10.11-6.17-10.34-6.91c-0.25-0.59,0.82-2.74,2.25-5.48c6.4-12.31,12.66-24.1,20.29-38.23
			l1.26-2.3c3.1-5.67,4.46-8.17,4.96-8.84c0.72,0.27,2.43,1.15,3.22,1.55l0.19,0.1c5.52,2.88,7.48,4.42,8.1,6.35
			c1.18,3.76-1.55,16.92-2.45,21.28c-0.03,0.2-0.01,0.51,0.26,0.84c0.5,0.58,2.22,1.48,3.04,1.48c0.61,0,0.87-0.37,0.94-0.52
			c4.78-8.71,7.58-14.49,10.82-21.18l0.89-1.84C728.35,129.21,728.29,128.78,728.19,128.51z"/>
		<g>
			<path class="st0" d="M816.26,200.77c-8.92-9.42-18.03-13.55-30.43-13.8c-10-0.27-19.65,3.2-26.27,9.45
				c-8.25,7.81-12.21,15.83-12.47,25.25c-0.3,10.81,3.58,21.28,10.65,28.75c7.27,7.68,17.45,12.25,27.93,12.54
				c0.37,0.01,0.74,0.02,1.12,0.02c10.61,0,20.87-3.94,28.14-10.82c7.13-6.75,11.36-15.54,11.59-24.1
				C826.71,217.35,823.26,208.17,816.26,200.77z M816.95,222.99c-2.07,5.68-6.44,11.55-13.77,18.49
				c-7.67,7.26-14.3,10.3-18.51,11.57c-8.03,2.49-15.94,0.13-22.35-6.64c-5.96-6.3-8.07-14.15-5.62-21
				c1.71-4.56,5.45-9.46,11.76-15.43c8.1-7.67,14.29-11.85,20.08-13.55c1.84-0.57,3.8-0.86,5.81-0.86c6.09,0,11.88,2.57,16.3,7.24
				C817.23,209.77,819.29,216.38,816.95,222.99z"/>
		</g>
		<path class="st0" d="M910.88,358.17c-1.64-3.14-3.2-6.37-4.63-9.6c-1.73-3.92-4.84-11.7-6.33-15.44l-0.43-1.08
			c-0.08-0.19-0.35-0.63-1.08-0.63c-0.97,0-2.99,0.89-3.51,1.68c-0.21,0.32-0.25,0.7-0.13,0.96c0.89,2.48,2.97,8.3,2.5,9.49
			c-0.8,2.06-6.93,5.53-19.88,11.23c-4.14,1.83-8.26,3.61-12.29,5.36c-3.07,1.33-6.08,2.63-9.01,3.92
			c4.36-7.17,8.73-14.44,12.96-21.49c5.73-9.54,11.14-18.56,16.51-27.28c2.97-4.65,3.63-5.96,3.53-6.98l-1.7-3.78
			c-1.82-3.91-3.26-6.99-4.34-9.45c-0.6-1.37-1.18-2.74-1.8-4.22c-0.72-1.7-1.49-3.53-2.41-5.61c-0.1-0.24-0.39-0.64-1.14-0.64
			c-1,0-3.15,0.77-3.71,1.64c-0.22,0.33-0.25,0.72-0.12,1.02c2.4,5.98,3.04,9.2,2.21,11.12l-0.04,0.12c-0.1,0.4-0.13,0.49-0.87,0.82
			c-8.18,3.61-16.67,7.55-24.16,11.03c-6.14,2.85-11.95,5.55-16.51,7.56c-8.02,3.54-11.49,3.92-12.61,3.92
			c-0.57,0-0.81-0.09-0.94-0.14c-0.86-0.33-2.06-2.18-5.3-8.19c-0.06-0.14-0.3-0.58-0.96-0.58c-0.89,0-3.31,1.14-3.81,1.91
			c-0.19,0.3-0.23,0.65-0.08,0.98c2.09,4.13,3.45,6.94,5.98,12.65l0.16,0.37c2.52,5.72,3.9,8.87,5.89,14.25
			c0.08,0.19,0.36,0.63,1.11,0.63c0.98,0,3.04-0.82,3.66-1.59c0.31-0.39,0.29-0.75,0.24-1c-1.73-5.76-2.87-9.56-2.59-10.28
			c0.51-1.31,5.29-3.66,10.38-6l6.62-3.12c10.87-5.13,22.09-10.42,32.43-15.02c-10.87,19.05-30.49,52.35-39.71,65.49l-0.09,0.18
			c-0.32,0.81-0.09,1.59,0.54,3.01c1.42,3.22,2.03,4.05,2.95,4.05c0.17,0,0.34-0.04,0.49-0.11c2.59-1.14,4.99-2.31,7.53-3.55
			c2.91-1.42,6.21-3.03,10.34-4.85c3.9-1.72,7.34-3.17,10.67-4.58c3.49-1.47,7.09-2.99,11.3-4.85c12.9-5.69,19.96-8.34,22.22-8.34
			c0.24,0,0.36,0.03,0.45,0.07c0.78,0.24,2.16,2.37,5.15,7.39c0.16,0.3,0.48,0.48,0.85,0.48c0.8,0,2.91-1.07,3.43-1.85
			C911.08,358.81,910.99,358.42,910.88,358.17z"/>
		<path class="st0" d="M182.25,326.56c-7.68-2.7-13.34-5.26-18.81-7.74l-0.16-0.1h-0.24c-1,0-2.76,2.19-3.01,2.95
			c-0.23,0.68,0.15,1.04,0.24,1.1c3.62,3.14,5.86,6.27,7.49,10.46c2.07,5.18,2.76,9.79-0.21,16.74c-3.49,8.04-9.13,12.62-15.88,12.9
			c-5.6,0.34-11.83-1.09-19.93-4.58c-9.47-4.08-14.87-7.82-19.93-13.82c-2.19-2.56-6.79-9.62-2.3-19.95
			c2.54-5.87,5.36-9.05,9.43-10.64c4.01-1.6,10.61-1.85,19.62-0.75l0.12,0.01c1.2,0,1.95-2.85,1.96-2.88
			c0.19-0.87-0.15-1.22-0.48-1.37c-5.67-2.31-17.31-7.34-24.42-11.04c-0.13-0.06-0.27-0.09-0.41-0.09c-1.09,0-1.86,1.73-2.01,2.07
			c-0.38,0.91-0.37,1.58-0.04,1.9c2.06,2.75,2.96,4.48,2.68,5.12c-0.1,0.23-0.75,0.79-1.39,1.34c-2.37,2.05-6.79,5.86-10.28,13.95
			c-3.88,8.97-3.67,18.36,0.66,29.55c3.79,9.34,11.4,17.05,20.89,21.17c4.32,1.86,8.92,2.8,13.68,2.8c4.54,0,9.13-0.87,13.27-2.52
			c9.32-3.69,15.79-9.96,19.79-19.17c2.62-6.1,3.35-11.25,2.31-16.52l0.09,0.02l-0.32-1.19c-0.02-0.07-0.45-1.76,0.87-3.56
			c0.79-1.09,1.21-1.22,5.58-1.67h0c1.27,0,1.79-2.51,1.79-2.54C183.14,327.22,182.7,326.75,182.25,326.56z"/>
	</g>
	<g>
		<g>
			<path class="st0" d="M306.57,816.63c-1.77-10.48-6.81-18.8-14.96-24.73c-8.07-5.86-15.8-8.59-24.34-8.59
				c-2.48,0-5.04,0.22-7.81,0.68c-9.86,1.57-18.56,6.67-23.87,13.99c-6.62,9.1-9.02,17.63-7.57,26.86
				c1.68,10.58,7.37,20.09,15.6,26.07c6.86,4.99,14.96,7.62,23.41,7.62c2.04,0,4.09-0.16,6.09-0.47
				c10.64-1.69,20.56-7.61,26.53-15.84C305.36,834.35,307.89,825.03,306.57,816.63z M296.3,813.44c-0.98,5.9-4.17,12.41-10.05,20.5
				c-6.14,8.45-12.05,12.62-15.93,14.64c-7.41,3.9-15.47,3.05-22.97-2.4c-6.95-5.05-10.42-12.32-9.29-19.43
				c0.84-4.74,3.59-10.2,8.64-17.17c6.51-8.95,11.78-14.14,17.1-16.84c2.79-1.47,6.02-2.25,9.34-2.25c4.72,0,9.34,1.54,13.34,4.45
				C294.17,800.51,297.38,806.57,296.3,813.44z"/>
		</g>
		<path class="st0" d="M403.88,893.13c-0.56-0.76-2.39-1.38-3.29-1.38c-0.48,0-0.84,0.15-1.08,0.44l-0.06,0.09
			c-8.75,14.1-11.85,16.99-13.74,17.95c-0.64,0.33-1.35,0.48-2.23,0.48c-2.32,0-5.99-1.04-11.95-2.96c-6.9-2.23-8.85-3.17-9.21-3.55
			c0-0.86,1.18-4.55,2.81-9.59l0.09-0.28c7.55-23.37,8.91-27.58,11.34-34.74c2.36-7.04,4.22-12.52,4.86-13.44c0.01,0,0.02,0,0.03,0
			c0.9,0,4.04,0.96,9.91,2.86l0.27,0.04c1.34,0,2.11-3.85,2.12-3.89c0.14-0.92-0.32-1.21-0.61-1.3l-16.39-5.29
			c-2.71-0.87-5.61-1.87-8.41-2.84c-2.71-0.94-5.27-1.82-7.67-2.6l-0.27-0.04c-1.34,0-2.11,3.85-2.12,3.89
			c-0.14,0.92,0.32,1.21,0.61,1.3c2.56,0.83,8.54,2.76,8.92,3.33c0.22,0.92-1.97,7.72-2.8,10.28c-2.66,8.25-5.42,16.36-8.08,24.21
			c-1.83,5.38-3.66,10.77-5.48,16.25l-0.35,1.03c-1.46,4.28-2.26,6.64-2.57,6.93c-0.46,0-1.83-0.41-4.58-1.23
			c-1.29-0.39-2.92-0.87-4.97-1.47l-0.26-0.04c-1.36,0-2.14,3.92-2.15,3.96c-0.15,0.9,0.24,1.23,0.61,1.36
			c6.68,2.04,12.96,4.06,24.35,7.73l2.46,0.79c11.04,3.57,19.76,6.38,28.11,9.32c0.4,0.13,0.74,0.19,1.05,0.19
			c0.8,0,1.4-0.43,1.62-1.14c2.5-6.25,6.56-17.65,9.28-25.69C404.12,893.91,404.18,893.54,403.88,893.13z"/>
		<path class="st0" d="M526.43,903.87c-0.53-0.54-1.71-0.62-2.36-0.62c-1.26,0-1.99,0.29-2.24,0.89l-0.04,0.11
			c-4.11,16.06-6.2,19.75-7.71,21.24c-1.63,1.6-4.74,1.96-14.27,1.89c-7.23-0.06-9.37-0.37-9.84-0.63
			c-0.27-0.83-0.24-4.81-0.2-10.28c0.18-25.07,0.22-29.16,0.39-36.53c0.14-7.44,0.27-13.23,0.61-14.27c0.72-0.28,4.6-0.28,6.5-0.28
			c1.1,0,2.36,0,3.83,0.02c0.74,0,1.17-0.52,1.19-3.2c0.01-0.94,0.01-2.23-1.03-2.24l-17.21-0.13c-2.85-0.02-5.91-0.11-8.88-0.19
			c-2.87-0.08-5.57-0.16-8.1-0.18c-0.73,0-1.16,0.52-1.18,3.17c-0.01,0.95-0.02,2.26,1.03,2.29c2.69,0.02,8.98,0.06,9.51,0.49
			c0.49,0.82,0.44,7.96,0.42,10.65c-0.07,8.65-0.26,17.2-0.45,25.46c-0.13,5.69-0.26,11.39-0.35,17.18l-0.03,1.11
			c-0.1,4.36-0.16,6.83-0.39,7.38c-0.41,0.13-2.04,0.16-4.9,0.2c-1.32,0.02-2.96,0.04-5,0.08c-0.74,0-1.17,0.54-1.19,3.27
			c-0.01,0.96-0.01,2.29,1.05,2.3c2.15-0.02,4.25-0.03,6.49-0.03c5.14,0,10.87,0.04,19.55,0.11l1.77,0.01
			c11.73,0.09,20.99,0.16,29.92,0.46h0.03c2.01,0,2.23-1.23,2.23-1.71c0.51-6.65,0.96-18.75,1.15-27.28
			C526.74,904.34,526.63,904.07,526.43,903.87z"/>
		<path class="st0" d="M656.48,903.56c-2.11-7.61-4.59-16.47-6.95-24.52c-0.07-0.23-0.32-0.76-1.21-0.76
			c-0.45,0-3.71,0.58-3.73,1.97c1.32,13.78,0.27,19.18-0.83,21.26c-0.82,1.43-2.11,2.39-7.19,3.96l-11.6,3.58
			c-4.39,1.35-7.13,2.01-8.38,2.01c-0.21,0-0.32-0.02-0.33-0.01c-0.54-0.65-2.22-5.89-5.73-17.27c-0.86-2.79-2.26-7.32-3.19-10.66
			c2.26-0.89,4.71-1.64,6.72-2.25c4.59-1.42,6.68-1.95,7.72-1.95c0.38,0,0.55,0.07,0.74,0.19c0.97,0.51,2.27,2.39,6.07,10.46
			c0.09,0.2,0.34,0.54,0.94,0.54c0.7,0,3.1-0.73,3.66-1.5c0.19-0.27,0.25-0.59,0.14-0.92c-2.29-6.03-5.37-15.73-8.9-28.04
			c-0.07-0.23-0.33-0.77-1.26-0.77c-0.84,0-3.44,0.64-3.74,1.86l-0.05,0.19l0.04,0.19c1.58,6.99,1.6,8.85,1.1,9.8
			c-0.87,1.45-3.52,2.84-8.1,4.25c-3.84,1.19-4.85,1.5-7,2.07l-3.66-11.85c-1.14-3.7-3.44-11.16-3.65-12.87
			c0.86-0.46,3.62-1.31,10.8-3.52c7.07-2.18,10.15-3.07,12.06-3.07c1.04,0,1.76,0.27,2.65,0.75c2.01,1.06,5.56,4.34,11.08,13.89
			c0.22,0.42,0.67,0.63,1.34,0.63c0.37,0,3.03-0.28,3.35-1.39l0.06-0.21l-0.05-0.21c-0.91-3.9-2.07-8.65-3.19-13.25
			c-0.75-3.05-1.49-6.1-2.16-8.85c-0.23-1.44-1.09-1.66-1.58-1.66c-0.2,0-0.41,0.03-0.67,0.12c-10.29,3.68-19.98,6.66-27.77,9.06
			c-4.68,1.45-24.89,7.56-30.2,8.95c-0.31,0.1-0.67,0.38-0.66,1.14c0,0.04,0.31,3.55,1.5,3.91l0.23,0.07l0.23-0.06
			c5.74-1.51,8.22-2.07,9.15-2.07c0.06,0,0.2,0,0.2-0.01c0.38,0.37,1.26,3.12,3.03,8.58l0.45,1.38c1.84,5.98,3.55,11.42,5.17,16.55
			c1.43,4.53,2.78,8.82,4.08,13.05c4.57,14.79,5.21,18.38,5.15,19.16c-0.51,0.46-4.21,1.73-9.71,3.59
			c-0.53,0.16-0.74,0.63-0.62,1.42c0.01,0.04,0.61,4.09,1.93,4.09h0l0.27-0.04c10.19-3.39,15.74-5.1,29.16-9.25l0.44-0.13
			c11.75-3.62,20.25-6.24,31.42-9.57c0.48-0.14,0.95-0.34,1.2-0.81C656.69,904.23,656.53,903.7,656.48,903.56z"/>
		<path class="st0" d="M773.23,835.43c-1.69-2.19-4.19-5.49-6.53-8.77c-2.27-3.19-9.19-12.9-9.28-14.23l0.01-0.05
			c0.36-0.72,4.14-3.73,6.18-5.36l0.26-0.2l0.05-0.32c0.12-0.81-1.05-2.28-1.56-2.88c-0.63-0.74-1.01-1-1.45-1l-0.33,0.01
			l-0.23,0.18c-9.87,7.87-15.51,11.91-26.02,19.26c-0.19,0.13-0.6,0.54-0.33,1.38c0.24,0.76,1.67,3.14,2.85,3.14l0.36-0.03
			l0.22-0.16c4.93-3.51,7.8-5.35,8.53-5.49c0.49,0.18,1.39,0.95,4.7,5.6c4.27,6,5.11,7.55,5.45,9.11c0.56,3.86-1.58,9.97-7.59,14.26
			c-6.33,4.51-12.46,5.34-17.88,2.45c-4.52-2.4-8.28-5.67-16.27-16.89c-6.24-8.76-9.05-14.7-10.01-21.22
			c-1.2-6.96,1.85-13.62,8.35-18.26c4.22-3,7.89-4.18,11.33-3.6c3.84,0.64,9.67,3.61,16.34,8.29c0.13,0.11,0.34,0.24,0.66,0.24
			c0.94,0,2.66-1.43,3.05-2.2c0.31-0.61,0.08-1.04-0.03-1.18c-3.68-5.36-8.85-13.51-12.32-20.33l-0.4-0.48h-0.43
			c-0.42,0-2.96,0.84-3.13,1.85l-0.01,0.07l0,0.07c0.06,4.92-1,6.07-1.32,6.3c-0.27,0.19-1.26,0.38-2.3,0.58
			c-3.19,0.61-8.53,1.63-14.52,5.89c-7.78,5.54-12.63,13.43-14.41,23.46c-1.92,11.4,0.33,21.4,6.87,30.57
			c6,8.42,13.89,13.56,23.47,15.27c1.86,0.31,3.77,0.47,5.68,0.47c4.99,0,12.47-1.08,19.73-6.25c6.68-4.76,9.12-11,10.57-14.72
			c0.54-1.38,1.04-2.68,1.44-2.96c0.02-0.01,0.13-0.08,0.47-0.08c1.21,0,3.56,0.79,7,1.99l0.29,0.05c1.23,0,2.43-2.33,2.44-2.35
			C773.3,836.62,773.63,835.98,773.23,835.43z"/>
		<path class="st0" d="M866.21,730.54C860,725.72,852.75,720.09,846,715c-0.17-0.12-0.38-0.19-0.59-0.19
			c-1.23,0-2.58,2.56-2.59,2.59c-0.16,0.3-0.48,0.94-0.04,1.54c9.27,10.26,11.64,15.23,12,17.55c0.19,1.64-0.27,3.18-3.41,7.46
			l-7.17,9.78c-4.12,5.63-5.42,6.64-5.82,6.8c-0.89-0.25-5.55-3.6-14.87-10.44c-2.52-1.84-6.23-4.56-8.92-6.65
			c1.16-1.86,2.54-3.75,3.77-5.44l0.27-0.37c3.63-4.94,4.91-6.39,5.74-6.45c0.09-0.01,0.18-0.02,0.29-0.02
			c1.34,0,4.36,1.34,10.79,4.79l0.19,0.12h0.27c1.1,0,2.47-2.74,2.6-3.12c0.25-0.76-0.09-1.15-0.35-1.33
			c-6.98-4.45-16.82-11.8-23.86-17.2c-0.17-0.13-0.38-0.19-0.6-0.19c-0.78,0-1.56,0.92-2.08,1.7c-1.02,1.51-0.77,2.13-0.69,2.34
			l0.08,0.19l0.15,0.13c5.44,4.66,6.56,6.15,6.73,7.21c0.15,1.7-1.14,4.4-3.96,8.24c-2.37,3.23-3.01,4.09-4.38,5.83l-9.99-7.32
			c-3.12-2.29-9.41-6.91-10.6-8.14c0.4-0.84,2.02-3.06,6.57-9.26c6.9-9.41,7.68-10.2,10.4-10.63c0.37-0.06,0.79-0.09,1.24-0.09
			c2.39,0,7.1,0.81,15.95,4.64l0.26,0.1h0.18c0.97,0,2.04-1.41,2.34-1.84c0.52-0.74,0.67-1.22,0.52-1.66l-0.08-0.21l-0.17-0.15
			c-2.96-2.5-6.59-5.52-10.1-8.43c-2.54-2.1-5.08-4.21-7.37-6.12c-0.3-0.3-0.77-0.69-1.38-0.69c-0.5,0-0.95,0.26-1.33,0.79
			c-5.9,8.84-11.73,16.8-16.88,23.81c-3.27,4.46-15.55,21.02-18.88,25.17c-0.1,0.14-0.31,0.52-0.05,1.03
			c0.32,0.63,2.41,2.59,3.38,2.59l0.2-0.01l0.36-0.14l0.14-0.18c2.77-3.46,5.77-7.15,6.25-7.24c0.52,0.07,2.85,1.73,7.48,5.04
			l1.24,0.89c5.05,3.7,9.66,7.04,14.01,10.19c3.84,2.79,7.49,5.42,11.06,8.04c12.47,9.13,15.13,11.64,15.54,12.3
			c-0.14,0.68-2.35,3.9-5.65,8.66c-0.21,0.28-0.23,0.65-0.06,0.98c0.31,0.61,3.08,2.83,3.87,2.83l0.46-0.01l0.25-0.36
			c6.18-8.82,9.63-13.53,17.97-24.92l0.15-0.2c7.25-9.88,12.49-17.02,19.54-26.44C866.64,732.53,867.43,731.45,866.21,730.54z"/>
		<path class="st0" d="M224.38,731.81c-0.23-0.75-1.19-2.53-2.24-2.53l-0.18,0.01c-1.21,0.11-2.19,0.16-3.01,0.16
			c-1.9,0-2.51-0.3-2.68-0.55c-0.14-0.21-0.28-1.05-0.42-1.87c-0.51-3.08-1.46-8.81-6.52-15.98c-5.54-7.86-13.86-12.69-25.44-14.76
			c-9.85-1.62-20.43,0.87-28.82,6.76c-10.6,7.51-13.46,18.42-14.2,22.76c-1.69,9.69,0.33,18.69,6.01,26.75
			c3.83,5.41,7.85,8.71,12.91,10.57l-0.07,0.08l1.11,0.31c0.02,0,1.71,0.49,2.57,2.58c0.52,1.27,0.32,1.84-1.49,5.65
			c-0.21,0.36-0.16,0.84,0.15,1.41c0.35,0.65,1.45,2.08,2.44,2.08h0c0.21,0,0.42-0.06,0.62-0.21c6.28-5.13,11.39-8.62,16.32-11.98
			c0.65-0.35,0.47-1.32,0.39-1.75c-0.09-0.51-0.63-3.05-1.81-3.05l-0.27,0.04c-4.63,1.47-8.32,1.74-12.77,0.94
			c-5.46-0.92-9.72-2.73-14.1-8.86c-5.02-7.14-5.99-14.3-2.73-20.19c2.65-4.97,7.03-9.46,14.22-14.56
			c8.39-5.92,14.38-8.56,22.09-9.75c0.93-0.15,1.87-0.23,2.81-0.23c4.23,0,10.33,1.49,15.33,8.61c3.67,5.21,4.91,9.26,4.14,13.55
			c-0.73,4.3-3.85,9.89-9.54,17.08c-0.38,0.48-0.07,1.13,0.04,1.37c0.01,0.02,1.18,2.3,2.25,2.3l0.31-0.02l0.19-0.14
			c5.15-3.8,15.26-10.92,22.03-15.01C224.29,733.22,224.68,732.78,224.38,731.81z"/>
	</g>
</g>
<path class="st0" d="M120.05,536.25c0,10.04-8.14,18.17-18.17,18.17c-10.03,0-18.17-8.13-18.17-18.17
	c0-10.04,8.14-18.17,18.17-18.17C111.91,518.08,120.05,526.21,120.05,536.25z"/>
<path class="st0" d="M916.29,536.25c0,10.04-8.14,18.17-18.17,18.17c-10.03,0-18.17-8.13-18.17-18.17
	c0-10.04,8.14-18.17,18.17-18.17C908.15,518.08,916.29,526.21,916.29,536.25z"/>
</svg>
